# Blender v2.77 (sub 0) OBJ File: 'BLENDER Selection.blend'
# www.blender.org
mtllib MESH Selection.mtl
o Cube
v 0.500000 0.000000 -0.500000
v 0.500000 0.000000 0.500000
v -0.500000 0.000000 0.500000
v -0.500000 0.000000 -0.500000
v 0.500000 1.000000 -0.500000
v 0.500000 1.000000 0.500000
v -0.500000 1.000000 0.500000
v -0.500000 1.000000 -0.500000
v -0.495000 0.005000 -0.495000
v -0.495000 0.005000 0.495000
v 0.495000 0.005000 0.495000
v 0.495000 0.005000 -0.495000
v -0.495000 0.995000 -0.495000
v -0.495000 0.995000 0.495000
v 0.495000 0.995000 0.495000
v 0.495000 0.995000 -0.495000
vt 1.0000 -0.0000
vt 1.0000 1.0000
vt 0.0000 1.0000
vt -0.0000 0.0000
vt 1.0000 0.0000
vt 1.0000 1.0000
vt 0.0000 1.0000
vt 0.0000 -0.0000
vt 1.0000 0.0000
vt 1.0000 1.0000
vt 0.0000 1.0000
vt 0.0000 -0.0000
vt 0.0000 1.0000
vt -0.0000 0.0000
vt 1.0000 -0.0000
vt 1.0000 1.0000
vt 1.0000 -0.0000
vt 1.0000 1.0000
vt 0.0000 1.0000
vt -0.0000 0.0000
vt 1.0000 0.0000
vt 1.0000 1.0000
vt 0.0000 1.0000
vt 0.0000 -0.0000
vt 1.0000 0.0000
vt 1.0000 1.0000
vt 0.0000 1.0000
vt 0.0000 -0.0000
vt 0.0000 1.0000
vt -0.0000 0.0000
vt 1.0000 -0.0000
vt 1.0000 1.0000
vn 1.0000 0.0000 0.0000
vn -0.0000 -0.0000 1.0000
vn -1.0000 -0.0000 -0.0000
vn 0.0000 0.0000 -1.0000
usemtl Material
s off
f 1/1/1 5/2/1 6/3/1 2/4/1
f 2/5/2 6/6/2 7/7/2 3/8/2
f 3/9/3 7/10/3 8/11/3 4/12/3
f 5/13/4 1/14/4 4/15/4 8/16/4
f 9/17/1 13/18/1 14/19/1 10/20/1
f 10/21/4 14/22/4 15/23/4 11/24/4
f 11/25/3 15/26/3 16/27/3 12/28/3
f 13/29/2 9/30/2 12/31/2 16/32/2
